<svg xmlns="http://www.w3.org/2000/svg" xmlns:xlink="http://www.w3.org/1999/xlink" viewBox="0,0,256,256" width="24px" height="24px"><g fill="#ffffff" fill-rule="nonzero" stroke="none" stroke-width="1" stroke-linecap="butt" stroke-linejoin="miter" stroke-miterlimit="10" stroke-dasharray="" stroke-dashoffset="0" font-family="none" font-weight="none" font-size="none" text-anchor="none" style="mix-blend-mode: normal"><g transform="scale(10.66667,10.66667)"><path d="M5,3c-1.1,0 -2,0.9 -2,2v14c0,1.1 0.9,2 2,2h14c1.1,0 2,-0.9 2,-2v-14c0,-1.1 -0.9,-2 -2,-2zM8.92773,8h1.56445l2.66797,8h-1.82812l-0.45312,-1.63672h-2.33594l-0.45312,1.63672h-1.8125zM9.70703,10.16406l-0.79102,2.85156h1.58398zM15.73438,10.59375c1.529,0 1.98633,1.48694 1.98633,2.33594v0.75586h-2.95312c0.048,0.351 0.19169,0.63175 0.42969,0.84375c0.238,0.211 0.53934,0.34241 0.90234,0.31641c0.537,-0.039 1.15628,-0.36073 1.36328,-0.55273v1.32226c-0.331,0.194 -1.00399,0.38477 -1.45898,0.38477c-0.803,0 -1.45594,-0.24066 -1.96094,-0.72266c-0.504,-0.482 -0.75977,-1.12473 -0.75977,-1.92774v-0.13867c0,-0.538 0.29217,-2.61719 2.45117,-2.61719zM15.60547,11.76758c-0.458,0 -0.83984,0.44336 -0.83984,0.94336h1.62109c-0.001,-0.465 -0.30225,-0.94336 -0.78125,-0.94336z"></path></g></g></svg>