<svg xmlns="http://www.w3.org/2000/svg" xmlns:xlink="http://www.w3.org/1999/xlink" viewBox="0,0,256,256" width="24px" height="24px"><g fill="#ffffff" fill-rule="nonzero" stroke="none" stroke-width="1" stroke-linecap="butt" stroke-linejoin="miter" stroke-miterlimit="10" stroke-dasharray="" stroke-dashoffset="0" font-family="none" font-weight="none" font-size="none" text-anchor="none" style="mix-blend-mode: normal"><g transform="scale(10.66667,10.66667)"><path d="M5,3c-1.1,0 -2,0.9 -2,2v14c0,1.1 0.9,2 2,2h14c1.1,0 2,-0.9 2,-2v-14c0,-1.1 -0.9,-2 -2,-2zM6.89063,8h2.69922c2.326,0 2.60352,2.14047 2.60352,2.60547c-0.001,1.86 -1.30172,2.50976 -2.51172,2.50976h-1.11719v2.79102h-1.67383zM8.56445,9.30273v2.51172h1.11719c0.744,0 0.92969,-0.55798 0.92969,-1.20898c0.001,-0.652 -0.27769,-1.30273 -0.92969,-1.30273zM15.16992,9.95313c1.395,0 2.13867,0.83833 2.13867,1.86133h-1.58008c0,-0.465 -0.18659,-0.74414 -0.55859,-0.74414c-0.279,0 -0.55859,0.18659 -0.55859,0.55859c0,0.93 2.69922,0.65027 2.69922,2.69727c-0.001,1.395 -1.39663,1.67383 -2.14062,1.67383c-1.488,0 -2.23242,-1.02313 -2.23242,-1.95312h1.48828c0,0.744 0.55814,0.83789 0.74414,0.83789c0.372,0 0.65039,-0.18659 0.65039,-0.55859c0,-0.837 -2.69922,-0.74447 -2.69922,-2.60547c0,-1.395 1.30383,-1.76758 2.04883,-1.76758z"></path></g></g></svg>