<svg xmlns="http://www.w3.org/2000/svg" xmlns:xlink="http://www.w3.org/1999/xlink" viewBox="0,0,256,256" width="24px" height="24px"><g fill="#ffffff" fill-rule="nonzero" stroke="none" stroke-width="1" stroke-linecap="butt" stroke-linejoin="miter" stroke-miterlimit="10" stroke-dasharray="" stroke-dashoffset="0" font-family="none" font-weight="none" font-size="none" text-anchor="none" style="mix-blend-mode: normal"><g transform="scale(10.66667,10.66667)"><path d="M19,3h-14c-1.1,0 -2,0.9 -2,2v14c0,1.1 0.9,2 2,2h14c1.1,0 2,-0.9 2,-2v-14c0,-1.1 -0.9,-2 -2,-2zM9.79,9.302h-1.116v2.512h1.116c0.744,0 0.93,-0.558 0.93,-1.209c0.001,-0.652 -0.278,-1.303 -0.93,-1.303zM9.79,13.116h-1.116v2.884h-1.674v-8h2.698c2.326,0 2.605,2.14 2.605,2.605c-0.001,1.86 -1.303,2.511 -2.513,2.511zM16.835,11.6c-0.074,-0.008 -0.473,-0.047 -0.551,-0.047c-0.637,0 -0.842,0.402 -0.92,0.598v3.849h-1.664v-6h1.564l0.047,0.686c0.125,-0.254 0.459,-0.803 1.084,-0.803c0.274,0 0.402,0.053 0.457,0.076z"></path></g></g></svg>